<?xml version="1.0" encoding="UTF-8"?>
<svg version="1.1" xmlns="http://www.w3.org/2000/svg" width="1468" height="448">
<path d="M0 0 C214.17 0 428.34 0 649 0 C649 12.87 649 25.74 649 39 C721.6 39 794.2 39 869 39 C869 26.13 869 13.26 869 0 C1066.67 0 1264.34 0 1468 0 C1468 114.18 1468 228.36 1468 346 C1300.36 346 1132.72 346 960 346 C960 362.5 960 379 960 396 C950.76 396 941.52 396 932 396 C932 413.16 932 430.32 932 448 C923.42 448 914.84 448 906 448 C906 430.84 906 413.68 906 396 C897.42 396 888.84 396 880 396 C880 379.5 880 363 880 346 C798.82 346 717.64 346 634 346 C634 362.5 634 379 634 396 C625.42 396 616.84 396 608 396 C608 413.16 608 430.32 608 448 C599.42 448 590.84 448 582 448 C582 430.84 582 413.68 582 396 C572.76 396 563.52 396 554 396 C554 379.5 554 363 554 346 C371.18 346 188.36 346 0 346 C0 231.82 0 117.64 0 0 Z " fill="#C7BCAF" transform="translate(0,0)"/>
<path d="M0 0 C30.69 0 61.38 0 93 0 C93 7.92 93 15.84 93 24 C62.31 24 31.62 24 0 24 C0 32.25 0 40.5 0 49 C30.69 49 61.38 49 93 49 C93 56.92 93 64.84 93 73 C62.31 73 31.62 73 0 73 C0 81.25 0 89.5 0 98 C30.69 98 61.38 98 93 98 C93 105.92 93 113.84 93 122 C62.31 122 31.62 122 0 122 C0 130.25 0 138.5 0 147 C30.69 147 61.38 147 93 147 C93 154.92 93 162.84 93 171 C62.31 171 31.62 171 0 171 C0 178.92 0 186.84 0 195 C30.69 195 61.38 195 93 195 C93 202.92 93 210.84 93 219 C62.31 219 31.62 219 0 219 C0 227.25 0 235.5 0 244 C30.69 244 61.38 244 93 244 C93 251.92 93 259.84 93 268 C62.31 268 31.62 268 0 268 C0 276.25 0 284.5 0 293 C30.69 293 61.38 293 93 293 C93 300.92 93 308.84 93 317 C62.31 317 31.62 317 0 317 C0 325.91 0 334.82 0 344 C-61.71 344 -123.42 344 -187 344 C-187 231.14 -187 118.28 -187 2 C-125.29 2 -63.58 2 0 2 C0 1.34 0 0.68 0 0 Z " fill="#C7BCAF" transform="translate(189,0)"/>
<path d="M0 0 C26.4 0 52.8 0 80 0 C80 37.62 80 75.24 80 114 C70.76 114 61.52 114 52 114 C52 131.16 52 148.32 52 166 C43.42 166 34.84 166 26 166 C26 148.84 26 131.68 26 114 C17.42 114 8.84 114 0 114 C0 76.38 0 38.76 0 0 Z " fill="#D9D9D9" transform="translate(880,282)"/>
<path d="M0 0 C26.4 0 52.8 0 80 0 C80 37.62 80 75.24 80 114 C71.42 114 62.84 114 54 114 C54 131.16 54 148.32 54 166 C45.42 166 36.84 166 28 166 C28 148.84 28 131.68 28 114 C18.76 114 9.52 114 0 114 C0 76.38 0 38.76 0 0 Z " fill="#D9D9D9" transform="translate(554,282)"/>
<path d="M0 0 C1.61677139 -0.0129007 1.61677139 -0.0129007 3.26620483 -0.02606201 C5.0250425 -0.03245193 5.0250425 -0.03245193 6.81941223 -0.03897095 C8.06229004 -0.04714844 9.30516785 -0.05532593 10.58570862 -0.06375122 C14.69851871 -0.08856202 18.81129217 -0.10526915 22.92414856 -0.11953735 C24.34448565 -0.12490103 25.76482269 -0.13027854 27.18515968 -0.13566971 C33.09668059 -0.15728426 39.00819888 -0.17601811 44.91974926 -0.1872921 C53.36851076 -0.20351559 61.81681135 -0.23667023 70.26539916 -0.29369295 C76.21889778 -0.3324945 82.17227364 -0.3519368 88.12589532 -0.35721266 C91.67545088 -0.36085223 95.22451375 -0.37272296 98.7739315 -0.4053154 C102.73974739 -0.44121166 106.70499245 -0.43699922 110.67097473 -0.42959595 C111.83341202 -0.44600128 112.9958493 -0.46240662 114.19351196 -0.47930908 C122.43916449 -0.41649346 129.2084167 1.24551242 135.47679424 6.86426735 C140.24098555 11.85507366 142.29687923 17.2999941 142.94367981 24.09140015 C142.65365555 30.78832401 140.48554387 37.4958184 135.56867981 42.15390015 C129.99046207 45.66020844 125.5353203 48.2850448 118.90461731 48.2515564 C117.78313293 48.24833374 116.66164856 48.24511108 115.50617981 48.24179077 C114.33055481 48.23341187 113.15492981 48.22503296 111.94367981 48.21640015 C110.76032043 48.21188843 109.57696106 48.20737671 108.35774231 48.20272827 C105.42803342 48.19091493 102.4983504 48.17297904 99.56867981 48.15390015 C99.56867981 40.89390015 99.56867981 33.63390015 99.56867981 26.15390015 C73.16867981 26.15390015 46.76867981 26.15390015 19.56867981 26.15390015 C19.56867981 33.41390015 19.56867981 40.67390015 19.56867981 48.15390015 C15.40161628 48.23519402 11.23615558 48.29454951 7.06867981 48.34140015 C5.89563293 48.36653687 4.72258606 48.39167358 3.51399231 48.41757202 C-4.87578641 48.4882724 -10.65275545 47.76982958 -17.68132019 42.90390015 C-23.19497085 37.39024949 -25.53347461 31.65347405 -25.74382019 23.90390015 C-25.64729579 17.3051411 -24.13916211 12.91077743 -19.48991394 8.17733765 C-13.16701369 2.51816725 -8.56776841 0.05113262 0 0 Z " fill="#727272" transform="translate(534.4313201904297,255.84609985351563)"/>
<path d="M0 0 C1.09612106 -0.00852997 2.19224213 -0.01705994 3.32157898 -0.02584839 C4.51440994 -0.02494202 5.70724091 -0.02403564 6.93621826 -0.02310181 C8.2002095 -0.02981903 9.46420074 -0.03653625 10.76649475 -0.04345703 C14.22745584 -0.06109443 17.68831796 -0.06581154 21.14931965 -0.0670886 C23.31482528 -0.06851241 25.48030594 -0.07278641 27.64580536 -0.07808304 C35.20991099 -0.09657808 42.77394623 -0.10475459 50.33807373 -0.10317993 C57.37326846 -0.10197969 64.40815583 -0.12306003 71.44327283 -0.15466726 C77.49528348 -0.1808822 83.5471941 -0.191545 89.59926105 -0.19026911 C93.2084883 -0.18976087 96.81744248 -0.19536675 100.42661285 -0.21662521 C104.4573694 -0.23971901 108.48744472 -0.230455 112.51824951 -0.21841431 C113.70298355 -0.22965332 114.88771759 -0.24089233 116.10835266 -0.25247192 C124.09963278 -0.19193495 130.46707195 1.02501761 136.79071045 6.12680054 C142.61602961 13.14036888 145.22594971 19.09233376 144.48602295 28.26742554 C142.69257808 35.74011247 138.64925706 40.79605961 132.48602295 45.26742554 C126.20135185 48.74228337 120.61876868 48.62475572 113.54852295 48.45492554 C109.89789795 48.39305054 106.24727295 48.33117554 102.48602295 48.26742554 C102.48602295 40.67742554 102.48602295 33.08742554 102.48602295 25.26742554 C76.08602295 25.26742554 49.68602295 25.26742554 22.48602295 25.26742554 C22.48602295 32.85742554 22.48602295 40.44742554 22.48602295 48.26742554 C18.02665232 48.40319799 13.5714739 48.50194563 9.11102295 48.57992554 C7.85934326 48.62182007 6.60766357 48.6637146 5.3180542 48.70687866 C-2.68248311 48.81159774 -8.92182238 48.06738308 -15.51397705 43.26742554 C-22.02642606 36.50240934 -24.1292265 29.70247923 -23.9553833 20.37289429 C-23.00362808 13.67691731 -19.31371663 8.30086452 -13.95147705 4.26742554 C-9.14577105 1.47137841 -5.58326176 0.01970364 0 0 Z " fill="#727272" transform="translate(857.5139770507813,256.7325744628906)"/>
<path d="M0 0 C62.37 0 124.74 0 189 0 C189 0.66 189 1.32 189 2 C127.29 2 65.58 2 2 2 C2 114.86 2 227.72 2 344 C63.71 344 125.42 344 189 344 C189 335.09 189 326.18 189 317 C219.69 317 250.38 317 282 317 C282 325.91 282 334.82 282 344 C371.76 344 461.52 344 554 344 C554 344.66 554 345.32 554 346 C371.18 346 188.36 346 0 346 C0 231.82 0 117.64 0 0 Z " fill="#656565" transform="translate(0,0)"/>
<path d="M0 0 C121.11 0 242.22 0 367 0 C367 12.87 367 25.74 367 39 C439.6 39 512.2 39 587 39 C587 26.13 587 13.26 587 0 C784.67 0 982.34 0 1186 0 C1186 114.18 1186 228.36 1186 346 C1018.36 346 850.72 346 678 346 C678 345.34 678 344.68 678 344 C844.98 344 1011.96 344 1184 344 C1184 231.14 1184 118.28 1184 2 C987.65 2 791.3 2 589 2 C589 14.87 589 27.74 589 41 C514.75 41 440.5 41 364 41 C364 28.13 364 15.26 364 2 C243.88 2 123.76 2 0 2 C0 1.34 0 0.68 0 0 Z " fill="#000000" transform="translate(282,0)"/>
<path d="M0 0 C23.1 0 46.2 0 70 0 C70 11.22 70 22.44 70 34 C46.9 34 23.8 34 0 34 C0 22.78 0 11.56 0 0 Z " fill="#000DFF" transform="translate(982,140)"/>
<path d="M0 0 C23.1 0 46.2 0 70 0 C70 11.22 70 22.44 70 34 C46.9 34 23.8 34 0 34 C0 22.78 0 11.56 0 0 Z " fill="#C80101" transform="translate(982,64)"/>
<path d="M0 0 C30.69 0 61.38 0 93 0 C93 7.92 93 15.84 93 24 C62.31 24 31.62 24 0 24 C0 16.08 0 8.16 0 0 Z " fill="#D9D9D9" transform="translate(189,293)"/>
<path d="M0 0 C30.69 0 61.38 0 93 0 C93 7.92 93 15.84 93 24 C62.31 24 31.62 24 0 24 C0 16.08 0 8.16 0 0 Z " fill="#7A7A7A" transform="translate(189,269)"/>
<path d="M0 0 C30.69 0 61.38 0 93 0 C93 7.92 93 15.84 93 24 C62.31 24 31.62 24 0 24 C0 16.08 0 8.16 0 0 Z " fill="#D9D9D9" transform="translate(189,244)"/>
<path d="M0 0 C30.69 0 61.38 0 93 0 C93 7.92 93 15.84 93 24 C62.31 24 31.62 24 0 24 C0 16.08 0 8.16 0 0 Z " fill="#7A7A7A" transform="translate(189,220)"/>
<path d="M0 0 C30.69 0 61.38 0 93 0 C93 7.92 93 15.84 93 24 C62.31 24 31.62 24 0 24 C0 16.08 0 8.16 0 0 Z " fill="#D8D8D8" transform="translate(189,195)"/>
<path d="M0 0 C30.69 0 61.38 0 93 0 C93 7.92 93 15.84 93 24 C62.31 24 31.62 24 0 24 C0 16.08 0 8.16 0 0 Z " fill="#7A7A7A" transform="translate(189,171)"/>
<path d="M0 0 C30.69 0 61.38 0 93 0 C93 7.92 93 15.84 93 24 C62.31 24 31.62 24 0 24 C0 16.08 0 8.16 0 0 Z " fill="#7A7A7A" transform="translate(189,122)"/>
<path d="M0 0 C30.69 0 61.38 0 93 0 C93 7.92 93 15.84 93 24 C62.31 24 31.62 24 0 24 C0 16.08 0 8.16 0 0 Z " fill="#D9D9D9" transform="translate(189,98)"/>
<path d="M0 0 C30.69 0 61.38 0 93 0 C93 7.92 93 15.84 93 24 C62.31 24 31.62 24 0 24 C0 16.08 0 8.16 0 0 Z " fill="#7A7A7A" transform="translate(189,73)"/>
<path d="M0 0 C30.69 0 61.38 0 93 0 C93 7.92 93 15.84 93 24 C62.31 24 31.62 24 0 24 C0 16.08 0 8.16 0 0 Z " fill="#D9D9D9" transform="translate(189,49)"/>
<path d="M0 0 C30.69 0 61.38 0 93 0 C93 7.92 93 15.84 93 24 C62.31 24 31.62 24 0 24 C0 16.08 0 8.16 0 0 Z " fill="#7A7A7A" transform="translate(189,25)"/>
<path d="M0 0 C30.69 0 61.38 0 93 0 C93 7.92 93 15.84 93 24 C62.31 24 31.62 24 0 24 C0 16.08 0 8.16 0 0 Z " fill="#D9D9D9" transform="translate(189,0)"/>
<path d="M0 0 C30.69 0 61.38 0 93 0 C93 7.59 93 15.18 93 23 C62.31 23 31.62 23 0 23 C0 15.41 0 7.82 0 0 Z " fill="#D9D9D9" transform="translate(189,147)"/>
<path d="M0 0 C62.37 0 124.74 0 189 0 C189 0.66 189 1.32 189 2 C127.29 2 65.58 2 2 2 C2 114.86 2 227.72 2 344 C63.71 344 125.42 344 189 344 C189 344.66 189 345.32 189 346 C126.63 346 64.26 346 0 346 C0 231.82 0 117.64 0 0 Z " fill="#000000" transform="translate(0,0)"/>
<path d="M0 0 C9.24 0 18.48 0 28 0 C28 1.65 28 3.3 28 5 C29.65 5 31.3 5 33 5 C33 9.62 33 14.24 33 19 C29.7 19 26.4 19 23 19 C23 20.65 23 22.3 23 24 C24.65 24 26.3 24 28 24 C28 25.65 28 27.3 28 29 C29.65 29 31.3 29 33 29 C33 30.32 33 31.64 33 33 C28.38 33 23.76 33 19 33 C19 31.35 19 29.7 19 28 C17.35 28 15.7 28 14 28 C14 26.68 14 25.36 14 24 C12.35 24 10.7 24 9 24 C9 26.97 9 29.94 9 33 C6.03 33 3.06 33 0 33 C0 22.11 0 11.22 0 0 Z " fill="#030202" transform="translate(1105,137)"/>
<path d="M0 0 C9.57 0 19.14 0 29 0 C29 1.65 29 3.3 29 5 C30.65 5 32.3 5 34 5 C34 9.62 34 14.24 34 19 C32.35 19 30.7 19 29 19 C29 20.65 29 22.3 29 24 C22.73 24 16.46 24 10 24 C10 27.3 10 30.6 10 34 C6.7 34 3.4 34 0 34 C0 22.78 0 11.56 0 0 Z " fill="#0C0B0B" transform="translate(882,209)"/>
<path d="M0 0 C9.57 0 19.14 0 29 0 C29 1.65 29 3.3 29 5 C30.65 5 32.3 5 34 5 C34 9.62 34 14.24 34 19 C32.35 19 30.7 19 29 19 C29 20.65 29 22.3 29 24 C22.73 24 16.46 24 10 24 C10 27.3 10 30.6 10 34 C6.7 34 3.4 34 0 34 C0 22.78 0 11.56 0 0 Z " fill="#0C0B0A" transform="translate(552,209)"/>
<path d="M0 0 C9.24 0 18.48 0 28 0 C28 1.65 28 3.3 28 5 C29.65 5 31.3 5 33 5 C33 9.62 33 14.24 33 19 C31.35 19 29.7 19 28 19 C28 20.65 28 22.3 28 24 C21.73 24 15.46 24 9 24 C9 26.97 9 29.94 9 33 C6.03 33 3.06 33 0 33 C0 22.11 0 11.22 0 0 Z " fill="#040404" transform="translate(1105,61)"/>
<path d="M0 0 C7.92 0 15.84 0 24 0 C24 1.65 24 3.3 24 5 C25.65 5 27.3 5 29 5 C29 9.95 29 14.9 29 20 C27.35 20 25.7 20 24 20 C24 21.32 24 22.64 24 24 C16.08 24 8.16 24 0 24 C0 22.35 0 20.7 0 19 C-1.32 19 -2.64 19 -4 19 C-4 14.38 -4 9.76 -4 5 C-2.68 5 -1.36 5 0 5 C0 3.35 0 1.7 0 0 Z " fill="#0A0A09" transform="translate(1147,70)"/>
<path d="M0 0 C7.92 0 15.84 0 24 0 C24 1.65 24 3.3 24 5 C25.32 5 26.64 5 28 5 C28 7.97 28 10.94 28 14 C26.68 14 25.36 14 24 14 C24 15.65 24 17.3 24 19 C22.35 19 20.7 19 19 19 C19 20.65 19 22.3 19 24 C15.7 24 12.4 24 9 24 C9 25.65 9 27.3 9 29 C15.27 29 21.54 29 28 29 C28 30.32 28 31.64 28 33 C17.11 33 6.22 33 -5 33 C-5 30.03 -5 27.06 -5 24 C-3.35 24 -1.7 24 0 24 C0 22.35 0 20.7 0 19 C1.65 19 3.3 19 5 19 C5 17.35 5 15.7 5 14 C7.97 14 10.94 14 14 14 C14 12.68 14 11.36 14 10 C15.65 10 17.3 10 19 10 C19 8.35 19 6.7 19 5 C14.38 5 9.76 5 5 5 C5 6.65 5 8.3 5 10 C1.7 10 -1.6 10 -5 10 C-5 8.35 -5 6.7 -5 5 C-3.35 5 -1.7 5 0 5 C0 3.35 0 1.7 0 0 Z " fill="#060605" transform="translate(925,209)"/>
<path d="M0 0 C7.92 0 15.84 0 24 0 C24 1.65 24 3.3 24 5 C25.65 5 27.3 5 29 5 C29 8.3 29 11.6 29 15 C21.08 15 13.16 15 5 15 C5 16.32 5 17.64 5 19 C11.27 19 17.54 19 24 19 C24 20.65 24 22.3 24 24 C16.08 24 8.16 24 0 24 C0 22.68 0 21.36 0 20 C-1.32 20 -2.64 20 -4 20 C-4 15.05 -4 10.1 -4 5 C-2.68 5 -1.36 5 0 5 C0 3.35 0 1.7 0 0 Z " fill="#0D0D0C" transform="translate(1223,146)"/>
<path d="M0 0 C7.92 0 15.84 0 24 0 C24 1.65 24 3.3 24 5 C25.65 5 27.3 5 29 5 C29 8.3 29 11.6 29 15 C21.08 15 13.16 15 5 15 C5 16.32 5 17.64 5 19 C11.27 19 17.54 19 24 19 C24 20.65 24 22.3 24 24 C16.08 24 8.16 24 0 24 C0 22.68 0 21.36 0 20 C-1.32 20 -2.64 20 -4 20 C-4 15.05 -4 10.1 -4 5 C-2.68 5 -1.36 5 0 5 C0 3.35 0 1.7 0 0 Z " fill="#0D0D0C" transform="translate(1223,70)"/>
<path d="M0 0 C7.92 0 15.84 0 24 0 C24 1.65 24 3.3 24 5 C25.65 5 27.3 5 29 5 C29 8.3 29 11.6 29 15 C21.08 15 13.16 15 5 15 C5 16.32 5 17.64 5 19 C11.27 19 17.54 19 24 19 C24 20.65 24 22.3 24 24 C16.08 24 8.16 24 0 24 C0 22.35 0 20.7 0 19 C-1.32 19 -2.64 19 -4 19 C-4 14.38 -4 9.76 -4 5 C-2.68 5 -1.36 5 0 5 C0 3.35 0 1.7 0 0 Z " fill="#0D0C0B" transform="translate(1147,146)"/>
<path d="M0 0 C2.97 0 5.94 0 9 0 C9 6.27 9 12.54 9 19 C10.65 19 12.3 19 14 19 C14 12.73 14 6.46 14 0 C15.65 0 17.3 0 19 0 C19 6.27 19 12.54 19 19 C20.32 19 21.64 19 23 19 C23 12.73 23 6.46 23 0 C26.3 0 29.6 0 33 0 C33 6.6 33 13.2 33 20 C31.35 20 29.7 20 28 20 C28 21.32 28 22.64 28 24 C24.7 24 21.4 24 18 24 C18 22.68 18 21.36 18 20 C16.68 20 15.36 20 14 20 C14 21.32 14 22.64 14 24 C10.7 24 7.4 24 4 24 C4 22.35 4 20.7 4 19 C2.68 19 1.36 19 0 19 C0 12.73 0 6.46 0 0 Z " fill="#0B0A0A" transform="translate(1181,70)"/>
<path d="M0 0 C7.92 0 15.84 0 24 0 C24 1.65 24 3.3 24 5 C17.73 5 11.46 5 5 5 C5 6.65 5 8.3 5 10 C11.27 10 17.54 10 24 10 C24 11.65 24 13.3 24 15 C25.65 15 27.3 15 29 15 C29 16.32 29 17.64 29 19 C27.35 19 25.7 19 24 19 C24 20.65 24 22.3 24 24 C14.76 24 5.52 24 -4 24 C-4 22.35 -4 20.7 -4 19 C3.59 19 11.18 19 19 19 C19 17.68 19 16.36 19 15 C12.73 15 6.46 15 0 15 C0 13.35 0 11.7 0 10 C-1.32 10 -2.64 10 -4 10 C-4 8.35 -4 6.7 -4 5 C-2.68 5 -1.36 5 0 5 C0 3.35 0 1.7 0 0 Z " fill="#0F0E0D" transform="translate(1185,146)"/>
<path d="M0 0 C3.3 0 6.6 0 10 0 C10 9.57 10 19.14 10 29 C12.97 29 15.94 29 19 29 C19 30.32 19 31.64 19 33 C9.76 33 0.52 33 -9 33 C-9 31.68 -9 30.36 -9 29 C-5.7 29 -2.4 29 1 29 C1 22.73 1 16.46 1 10 C-0.65 10 -2.3 10 -4 10 C-4 8.35 -4 6.7 -4 5 C-2.68 5 -1.36 5 0 5 C0 3.35 0 1.7 0 0 Z " fill="#020202" transform="translate(604,209)"/>
<path d="M0 0 C2.97 0 5.94 0 9 0 C9 3.3 9 6.6 9 10 C12.3 10 15.6 10 19 10 C19 11.32 19 12.64 19 14 C15.7 14 12.4 14 9 14 C9 20.27 9 26.54 9 33 C6.03 33 3.06 33 0 33 C0 26.73 0 20.46 0 14 C-3.3 14 -6.6 14 -10 14 C-10 12.68 -10 11.36 -10 10 C-6.7 10 -3.4 10 0 10 C0 6.7 0 3.4 0 0 Z " fill="#010000" transform="translate(1271,137)"/>
<path d="M0 0 C3.3 0 6.6 0 10 0 C10 1.65 10 3.3 10 5 C11.32 5 12.64 5 14 5 C14 6.65 14 8.3 14 10 C12.68 10 11.36 10 10 10 C10 14.62 10 19.24 10 24 C6.7 24 3.4 24 0 24 C0 16.08 0 8.16 0 0 Z " fill="#0C0B0B" transform="translate(1261,70)"/>
<path d="M0 0 C4.62 0 9.24 0 14 0 C14 4.95 14 9.9 14 15 C9.38 15 4.76 15 0 15 C0 10.05 0 5.1 0 0 Z " fill="#BCB1A5" transform="translate(1152,75)"/>
<path d="M0 0 C4.62 0 9.24 0 14 0 C14 4.62 14 9.24 14 14 C9.38 14 4.76 14 0 14 C0 9.38 0 4.76 0 0 Z " fill="#C8BDB0" transform="translate(892,214)"/>
<path d="M0 0 C4.62 0 9.24 0 14 0 C14 4.62 14 9.24 14 14 C9.38 14 4.76 14 0 14 C0 9.38 0 4.76 0 0 Z " fill="#C8BDB0" transform="translate(562,214)"/>
<path d="M0 0 C4.62 0 9.24 0 14 0 C14 4.62 14 9.24 14 14 C9.38 14 4.76 14 0 14 C0 9.38 0 4.76 0 0 Z " fill="#C4B9AC" transform="translate(1114,66)"/>
<path d="M0 0 C4.62 0 9.24 0 14 0 C14 2.97 14 5.94 14 9 C12.68 9 11.36 9 10 9 C10 10.65 10 12.3 10 14 C6.7 14 3.4 14 0 14 C0 9.38 0 4.76 0 0 Z " fill="#C2B7AA" transform="translate(1114,142)"/>
<path d="M0 0 C1.32 0 2.64 0 4 0 C4 5.94 4 11.88 4 18 C2.68 18 1.36 18 0 18 C0 12.06 0 6.12 0 0 Z " fill="#000000" transform="translate(1195,71)"/>
<path d="M0 0 C4.62 0 9.24 0 14 0 C14 1.65 14 3.3 14 5 C9.38 5 4.76 5 0 5 C0 3.35 0 1.7 0 0 Z " fill="#BEB3A7" transform="translate(1228,151)"/>
<path d="M0 0 C4.62 0 9.24 0 14 0 C14 1.65 14 3.3 14 5 C9.38 5 4.76 5 0 5 C0 3.35 0 1.7 0 0 Z " fill="#BCB1A5" transform="translate(1152,151)"/>
<path d="M0 0 C4.62 0 9.24 0 14 0 C14 1.65 14 3.3 14 5 C9.38 5 4.76 5 0 5 C0 3.35 0 1.7 0 0 Z " fill="#BEB3A7" transform="translate(1228,75)"/>
<path d="M0 0 C4.62 0 9.24 0 14 0 C14 1.65 14 3.3 14 5 C9.38 5 4.76 5 0 5 C0 3.35 0 1.7 0 0 Z " fill="#171514" transform="translate(1276,70)"/>
<path d="M0 0 C1.65 0 3.3 0 5 0 C5 6.27 5 12.54 5 19 C6.32 19.33 7.64 19.66 9 20 C7.68 20 6.36 20 5 20 C4.67 21.32 4.34 22.64 4 24 C4 22.68 4 21.36 4 20 C1.03 20 -1.94 20 -5 20 C-5 19.67 -5 19.34 -5 19 C-2.03 19 0.94 19 4 19 C4 13.06 4 7.12 4 1 C2.68 0.67 1.36 0.34 0 0 Z " fill="#5C5651" transform="translate(1195,70)"/>
</svg>
